# xmcd
#
# Track frame offsets: 
#        150
#        21612
#        35982
#        61753
#        85725
#        98155
#        115657
#        128859
#        147118
#        156650
#        188534
#        213152
#
# Disc length: 2998 seconds
#
# Revision: 0
# Processed by: cddbd v1.5.2PL0 Copyright (c) Steve Scherf et al.
# Submitted via: ExactAudioCopy v0.99pb5
#
DISCID=a50bb40c
DTITLE=Clinton Pelletier - Naturally
DYEAR=2004
DGENRE=Bluegrass
TTITLE0=Taking Time
TTITLE1=Chet Medley - Freight Train, I'll See You In My Dreams, Duitar
TTITLE1=Boogie
TTITLE2=Sandbox
TTITLE3=Sad Little Girl
TTITLE4=Black Berry Blosson
TTITLE5=Medley - Beaumont Rag, Cottonpatch Rag, 'Round the Horn-Steali
TTITLE5=n Corn'
TTITLE6=After You've Gone
TTITLE7=Reguerdos De La Alhambra
TTITLE8=Black Mountain Rag
TTITLE9=All Of Me
TTITLE10=Instant Atmosphere
TTITLE11=Skippy
EXTD=
EXTT0=
EXTT1=
EXTT2=
EXTT3=
EXTT4=
EXTT5=
EXTT6=
EXTT7=
EXTT8=
EXTT9=
EXTT10=
EXTT11=
PLAYORDER=
